<svg width="49" height="47" fill="none" xmlns="http://www.w3.org/2000/svg"><path opacity=".05" d="M35.559 0h-.117A13.31 13.31 0 0024.33 6.083 13.31 13.31 0 0013.218 0H13.1A13.225 13.225 0 000 13.218c0 4.328 1.895 10.469 5.591 15.522 7.042 9.627 18.739 18.049 18.739 18.049s11.7-8.422 18.739-18.049c3.7-5.053 5.591-11.194 5.591-15.522A13.225 13.225 0 0035.559 0zm4.866 26.81c-4.983 6.819-12.574 13.112-16.1 15.861-3.521-2.749-11.112-9.054-16.1-15.873-3.427-4.679-4.96-10.188-4.96-13.58a9.924 9.924 0 019.849-9.931h.105a9.807 9.807 0 014.808 1.263 10.22 10.22 0 013.556 3.334 3.286 3.286 0 005.5 0 10.323 10.323 0 013.556-3.334 9.807 9.807 0 014.808-1.263h.105a9.924 9.924 0 019.849 9.931 25.555 25.555 0 01-4.976 13.592z" fill="#000"/></svg>