<svg width="16" height="11" fill="none" xmlns="http://www.w3.org/2000/svg"><path d="M15.071 1.289l-3.93 4a.071.071 0 000 .1l2.75 2.929a.472.472 0 010 .672.476.476 0 01-.672 0l-2.74-2.908a.075.075 0 00-.106 0l-.668.679a2.941 2.941 0 01-3.262.645 3 3 0 01-.978-.671l-.643-.654a.075.075 0 00-.106 0L1.977 8.999a.476.476 0 01-.672-.672l2.75-2.929a.078.078 0 000-.1l-3.934-4a.072.072 0 00-.124.051v8.01a1.172 1.172 0 001.169 1.169h12.86a1.172 1.172 0 001.169-1.169v-8.01a.073.073 0 00-.124-.06z" fill="#fff"/><path d="M7.597 6.688a1.986 1.986 0 001.428-.6L14.756.255a1.148 1.148 0 00-.723-.256H1.165c-.263 0-.519.09-.723.256l5.731 5.833a1.986 1.986 0 001.424.6z" fill="#fff"/></svg>