<svg width="15" height="15" fill="none" xmlns="http://www.w3.org/2000/svg"><path d="M14.991 14.621c-.281-1.242-1.887-1.848-2.442-2.043-.67-.169-1.35-.3-2.035-.391a2.068 2.068 0 01-.941-.434 8.227 8.227 0 01-.062-1.926c.171-.27.32-.554.445-.848.143-.485.253-.98.328-1.48 0 0 .32 0 .434-.562.149-.423.246-.863.289-1.309-.023-.449-.27-.437-.27-.437.187-.65.277-1.324.266-2a3.518 3.518 0 00-7 0c-.008.676.08 1.35.262 2 0 0-.246-.012-.27.438.043.446.14.886.289 1.309.109.563.434.563.434.563.075.5.185.995.328 1.48a5.8 5.8 0 00.445.848 8.227 8.227 0 01-.063 1.926 2.068 2.068 0 01-.941.434 18.2 18.2 0 00-2.035.391c-.555.2-2.16.8-2.442 2.043a.312.312 0 00.309.379h14.372a.311.311 0 00.3-.381z" fill="#fff"/></svg>