<svg width="15" height="15" fill="none" xmlns="http://www.w3.org/2000/svg"><path d="M14.567 11.746a12.6 12.6 0 00-2.632-1.761c-.789-.379-1.078-.371-1.636.031-.465.336-.765.648-1.3.531a10.991 10.991 0 01-4.545-4.546c-.113-.539.2-.836.531-1.3.4-.558.414-.847.031-1.636A12.351 12.351 0 003.255.433c-.574-.574-.7-.449-1.019-.336a5.8 5.8 0 00-.933.5A2.815 2.815 0 00.182 1.78c-.223.48-.48 1.375.832 3.71a20.7 20.7 0 003.639 4.854 20.779 20.779 0 004.854 3.64c2.335 1.312 3.229 1.054 3.71.832.498-.246.91-.637 1.183-1.121.195-.295.362-.607.5-.933.116-.313.243-.442-.333-1.016z" fill="#fff"/></svg>