<svg width="15" height="15" viewBox="0 0 15 15" fill="none" xmlns="http://www.w3.org/2000/svg">
<path d="M14.567 11.746C13.7672 11.0506 12.8829 10.459 11.935 9.98499C11.146 9.60599 10.857 9.614 10.299 10.016C9.83398 10.352 9.53399 10.664 8.99899 10.547C7.0648 9.51846 5.48209 7.93541 4.45398 6.001C4.34098 5.462 4.65399 5.165 4.98499 4.701C5.38499 4.143 5.39899 3.85399 5.01599 3.06499C4.54436 2.11573 3.95249 1.23113 3.25499 0.432998C2.68098 -0.141002 2.55499 -0.0160004 2.23599 0.0969995C1.9104 0.234879 1.5981 0.402242 1.30299 0.597C0.820849 0.872172 0.430831 1.28376 0.181987 1.78C-0.041013 2.26 -0.298012 3.155 1.01399 5.49C1.98202 7.27793 3.20819 8.91349 4.65299 10.344C6.08419 11.7883 7.71961 13.0147 9.50698 13.984C11.842 15.296 12.736 15.038 13.217 14.816C13.7149 14.5696 14.1271 14.179 14.4 13.695C14.5947 13.3999 14.7621 13.0876 14.9 12.762C15.016 12.449 15.143 12.32 14.567 11.746Z" fill="white"/>
</svg>
