<svg width="260" height="260" fill="none" xmlns="http://www.w3.org/2000/svg"><g clip-path="url(#clip0_6_150)"><path d="M230 0H30C13.431 0 0 13.431 0 30v200c0 16.569 13.431 30 30 30h200c16.569 0 30-13.431 30-30V30c0-16.569-13.431-30-30-30z" fill="#004AF2"/><path d="M130 95.357a34.642 34.642 0 00-6.76 68.62A34.641 34.641 0 00164.642 130 34.747 34.747 0 00130 95.357zm82.683 25.4a83.461 83.461 0 00-73.445-73.437V33h-18.476v14.319a83.457 83.457 0 00-73.445 73.442H33v18.476h14.317a83.464 83.464 0 0073.445 73.445V227h18.476v-14.317a83.458 83.458 0 0073.445-73.445H227v-18.476l-14.317-.005zM130 194.667a64.665 64.665 0 01-63.426-77.282 64.665 64.665 0 0188.172-47.13A64.67 64.67 0 01194.666 130 64.853 64.853 0 01130 194.667z" fill="#fff"/></g><defs><clipPath id="clip0_6_150"><path fill="#fff" d="M0 0h260v260H0z"/></clipPath></defs></svg>