<svg width="260" height="260" viewBox="0 0 260 260" fill="none" xmlns="http://www.w3.org/2000/svg">
<g clip-path="url(#clip0_6_150)">
<path d="M230 0H30C13.4315 0 0 13.4315 0 30V230C0 246.569 13.4315 260 30 260H230C246.569 260 260 246.569 260 230V30C260 13.4315 246.569 0 230 0Z" fill="#004AF2"/>
<path d="M130 95.357C123.148 95.3568 116.45 97.3884 110.753 101.195C105.056 105.001 100.616 110.412 97.9933 116.742C95.3711 123.072 94.6849 130.038 96.0215 136.758C97.3581 143.478 100.657 149.651 105.502 154.496C110.347 159.341 116.52 162.64 123.24 163.977C129.96 165.314 136.926 164.628 143.256 162.006C149.586 159.384 154.997 154.944 158.804 149.247C162.61 143.55 164.642 136.852 164.642 130C164.615 120.82 160.957 112.025 154.466 105.533C147.975 99.0425 139.18 95.3839 130 95.357ZM212.683 120.757C210.54 102.018 202.113 84.5577 188.776 71.2217C175.438 57.8858 157.977 49.4608 139.238 47.32V33H120.762V47.319C102.022 49.4598 84.5601 57.8855 71.2225 71.2225C57.885 84.5595 49.4586 102.021 47.317 120.761H33V139.237H47.317C49.4586 157.977 57.885 175.439 71.2224 188.777C84.5599 202.114 102.022 210.54 120.762 212.682V227H139.238V212.683C157.978 210.541 175.44 202.115 188.777 188.777C202.115 175.44 210.541 157.978 212.683 139.238H227V120.762L212.683 120.757ZM130 194.667C117.21 194.667 104.707 190.875 94.0727 183.769C83.4381 176.664 75.1494 166.564 70.2548 154.748C65.3601 142.931 64.0794 129.929 66.5744 117.385C69.0695 104.84 75.2284 93.3178 84.2722 84.2739C93.316 75.2299 104.839 69.0709 117.383 66.5756C129.927 64.0804 142.929 65.3609 154.746 70.2554C166.562 75.1498 176.662 83.4384 183.768 94.0728C190.873 104.707 194.666 117.21 194.666 130C194.616 147.135 187.788 163.555 175.671 175.671C163.555 187.788 147.135 194.617 130 194.667Z" fill="white"/>
</g>
<defs>
<clipPath id="clip0_6_150">
<rect width="260" height="260" fill="white"/>
</clipPath>
</defs>
</svg>
