<svg width="16" height="11" fill="none" xmlns="http://www.w3.org/2000/svg"><path d="M15.074 1.578l-3.93 3.996a.07.07 0 000 .1l2.75 2.926a.474.474 0 01-.336.81.476.476 0 01-.336-.139l-2.74-2.905a.075.075 0 00-.106 0l-.668.678a2.941 2.941 0 01-3.262.644 3 3 0 01-.978-.67l-.643-.653a.075.075 0 00-.106 0L1.98 9.28a.476.476 0 01-.775-.517.473.473 0 01.103-.154l2.75-2.926a.078.078 0 000-.1L.124 1.587a.072.072 0 00-.124.05V9.64a1.17 1.17 0 001.169 1.168h12.86a1.173 1.173 0 001.169-1.168V1.638a.073.073 0 00-.124-.06z" fill="#000"/><path d="M7.6 6.971a1.988 1.988 0 001.428-.6L14.759.546a1.149 1.149 0 00-.723-.256H1.168C.905.29.649.38.445.546l5.731 5.827a1.986 1.986 0 001.424.6z" fill="#000"/></svg>