<svg width="15" height="16" fill="none" xmlns="http://www.w3.org/2000/svg"><path d="M14.566 11.998a12.604 12.604 0 00-2.632-1.76c-.789-.378-1.078-.37-1.636.032-.465.336-.765.647-1.3.53a10.986 10.986 0 01-4.545-4.54c-.113-.539.2-.835.531-1.299.4-.557.414-.846.031-1.634a12.339 12.339 0 00-1.76-2.63C2.68.123 2.554.247 2.234.36a5.802 5.802 0 00-.933.5 2.813 2.813 0 00-1.12 1.182c-.224.48-.48 1.373.831 3.706a20.682 20.682 0 003.64 4.85 20.778 20.778 0 004.853 3.636c2.335 1.31 3.23 1.053 3.71.831.498-.246.91-.636 1.183-1.12.195-.294.363-.606.5-.932.116-.312.243-.441-.333-1.015z" fill="#000"/></svg>