<svg width="136" height="25" fill="none" xmlns="http://www.w3.org/2000/svg"><path d="M48.01 16.565c-.32.23-.73.395-1.23.495-.49.1-.995.15-1.515.15-.63 0-1.23-.095-1.8-.285a3.964 3.964 0 01-1.485-.945c-.43-.44-.775-1.005-1.035-1.695-.25-.7-.375-1.545-.375-2.535 0-1.03.14-1.89.42-2.58.29-.7.66-1.26 1.11-1.68.46-.43.97-.735 1.53-.915.56-.19 1.12-.285 1.68-.285.6 0 1.105.04 1.515.12.42.08.765.175 1.035.285l-.405 1.74c-.23-.11-.505-.19-.825-.24-.31-.05-.69-.075-1.14-.075-.83 0-1.5.295-2.01.885-.5.59-.75 1.505-.75 2.745 0 .54.06 1.035.18 1.485.12.44.3.82.54 1.14.25.31.555.555.915.735.37.17.795.255 1.275.255.45 0 .83-.045 1.14-.135.31-.09.58-.205.81-.345l.42 1.68zm6.682-.21c-.3.24-.71.445-1.23.615-.51.16-1.055.24-1.635.24-1.21 0-2.095-.35-2.655-1.05-.56-.71-.84-1.68-.84-2.91 0-1.32.315-2.31.945-2.97.63-.66 1.515-.99 2.655-.99.38 0 .75.05 1.11.15.36.1.68.265.96.495.28.23.505.54.675.93.17.39.255.875.255 1.455 0 .21-.015.435-.045.675-.02.24-.055.49-.105.75h-4.5c.03.63.19 1.105.48 1.425.3.32.78.48 1.44.48.41 0 .775-.06 1.095-.18.33-.13.58-.26.75-.39l.645 1.275zm-2.79-5.505c-.51 0-.89.155-1.14.465-.24.3-.385.705-.435 1.215h2.79c.04-.54-.045-.955-.255-1.245-.2-.29-.52-.435-.96-.435zM60.899 17v-4.26c0-.61-.09-1.05-.27-1.32-.17-.27-.465-.405-.885-.405-.37 0-.685.11-.945.33-.25.21-.43.475-.54.795V17h-1.95V9.5h1.545l.225.99h.06c.23-.32.535-.6.915-.84s.87-.36 1.47-.36c.37 0 .7.05.99.15.29.1.535.265.735.495.2.23.35.545.45.945.1.39.15.875.15 1.455V17H60.9zm2.804-7.5h1.035V8.09l1.95-.555V9.5h1.83v1.65h-1.83v2.88c0 .52.05.895.15 1.125.11.22.31.33.6.33.2 0 .37-.02.51-.06.15-.04.315-.1.495-.18l.345 1.5c-.27.13-.585.24-.945.33-.36.09-.725.135-1.095.135-.69 0-1.2-.175-1.53-.525-.32-.36-.48-.945-.48-1.755v-3.78h-1.035V9.5zm11.936 6.855c-.3.24-.71.445-1.23.615-.51.16-1.055.24-1.635.24-1.21 0-2.095-.35-2.655-1.05-.56-.71-.84-1.68-.84-2.91 0-1.32.315-2.31.945-2.97.63-.66 1.515-.99 2.655-.99.38 0 .75.05 1.11.15.36.1.68.265.96.495.28.23.505.54.675.93.17.39.255.875.255 1.455 0 .21-.015.435-.045.675-.02.24-.055.49-.105.75h-4.5c.03.63.19 1.105.48 1.425.3.32.78.48 1.44.48.41 0 .775-.06 1.095-.18.33-.13.58-.26.75-.39l.645 1.275zm-2.79-5.505c-.51 0-.89.155-1.14.465-.24.3-.385.705-.435 1.215h2.79c.04-.54-.045-.955-.255-1.245-.2-.29-.52-.435-.96-.435zm8.547.48a2.54 2.54 0 00-.84-.165c-.35 0-.645.095-.885.285-.23.18-.385.415-.465.705V17h-1.95V9.5h1.515l.225.99h.06c.17-.37.4-.655.69-.855.29-.2.63-.3 1.02-.3.26 0 .555.055.885.165l-.255 1.83zm7.81 5.67H82.56V6.5h2.055v8.67h4.59V17zm.127-3.75c0-1.27.31-2.245.93-2.925.62-.69 1.49-1.035 2.61-1.035.6 0 1.12.095 1.56.285.44.19.805.46 1.095.81.29.34.505.755.645 1.245.15.49.225 1.03.225 1.62 0 1.27-.31 2.25-.93 2.94-.61.68-1.475 1.02-2.595 1.02-.6 0-1.12-.095-1.56-.285-.44-.19-.81-.455-1.11-.795a3.6 3.6 0 01-.66-1.26c-.14-.49-.21-1.03-.21-1.62zm2.01 0c0 .33.03.635.09.915s.15.525.27.735c.12.21.275.375.465.495.2.11.435.165.705.165.51 0 .89-.185 1.14-.555.25-.37.375-.955.375-1.755 0-.69-.115-1.245-.345-1.665-.23-.43-.62-.645-1.17-.645-.48 0-.855.18-1.125.54-.27.36-.405.95-.405 1.77zM104.095 17c0 1.09-.295 1.89-.885 2.4-.59.52-1.415.78-2.475.78-.72 0-1.29-.05-1.71-.15-.41-.1-.72-.205-.93-.315l.404-1.545c.23.09.496.18.796.27.31.09.69.135 1.14.135.68 0 1.14-.15 1.38-.45.25-.29.375-.7.375-1.23v-.48h-.06c-.35.47-.97.705-1.86.705-.97 0-1.695-.3-2.175-.9-.47-.6-.706-1.54-.706-2.82 0-1.34.32-2.355.96-3.045.64-.69 1.57-1.035 2.791-1.035.64 0 1.21.045 1.71.135a7.2 7.2 0 011.245.315V17zm-3.3-1.44c.38 0 .67-.085.87-.255.21-.17.37-.425.48-.765v-3.375c-.31-.13-.695-.195-1.155-.195-.5 0-.89.19-1.17.57-.28.37-.42.965-.42 1.785 0 .73.12 1.285.36 1.665.24.38.585.57 1.035.57zm5.162-6.06h1.95V17h-1.95V9.5zm-.285-2.115c0-.29.105-.535.315-.735.22-.21.52-.315.9-.315s.685.105.915.315c.24.2.36.445.36.735s-.12.535-.36.735c-.23.19-.535.285-.915.285s-.68-.095-.9-.285a.976.976 0 01-.315-.735zm7.253 7.545a.56.56 0 00-.255-.48c-.17-.12-.38-.23-.63-.33s-.525-.2-.825-.3c-.3-.11-.575-.255-.825-.435-.25-.19-.46-.425-.63-.705-.17-.29-.255-.66-.255-1.11 0-.74.22-1.305.66-1.695.44-.39 1.075-.585 1.905-.585.57 0 1.085.06 1.545.18.46.12.82.255 1.08.405l-.435 1.41c-.23-.09-.52-.185-.87-.285-.35-.1-.705-.15-1.065-.15-.58 0-.87.225-.87.675 0 .18.085.325.255.435.17.11.38.215.63.315l.825.3c.3.11.575.255.825.435.25.17.46.395.63.675.17.28.255.64.255 1.08 0 .76-.245 1.36-.735 1.8-.48.43-1.205.645-2.175.645-.53 0-1.03-.07-1.5-.21-.46-.13-.835-.285-1.125-.465l.54-1.455c.23.13.535.26.915.39.38.12.77.18 1.17.18.29 0 .52-.055.69-.165.18-.11.27-.295.27-.555zm2.443-5.43h1.035V8.09l1.95-.555V9.5h1.83v1.65h-1.83v2.88c0 .52.05.895.15 1.125.11.22.31.33.6.33.2 0 .37-.02.51-.06.15-.04.315-.1.495-.18l.345 1.5c-.27.13-.585.24-.945.33-.36.09-.725.135-1.095.135-.69 0-1.2-.175-1.53-.525-.32-.36-.48-.945-.48-1.755v-3.78h-1.035V9.5zm6.174 0h1.95V17h-1.95V9.5zm-.285-2.115c0-.29.105-.535.315-.735.22-.21.52-.315.9-.315s.685.105.915.315c.24.2.36.445.36.735s-.12.535-.36.735c-.23.19-.535.285-.915.285s-.68-.095-.9-.285a.976.976 0 01-.315-.735zm9.459 9.15c-.3.22-.665.385-1.095.495-.42.12-.855.18-1.305.18-.6 0-1.11-.095-1.53-.285a2.637 2.637 0 01-1.005-.795c-.26-.35-.45-.77-.57-1.26a7.403 7.403 0 01-.165-1.62c0-1.27.285-2.245.855-2.925.57-.69 1.4-1.035 2.49-1.035.55 0 .99.045 1.32.135.34.09.645.205.915.345l-.465 1.59c-.23-.11-.46-.195-.69-.255a2.92 2.92 0 00-.765-.09c-.54 0-.95.18-1.23.54-.28.35-.42.915-.42 1.695 0 .32.035.615.105.885.07.27.175.505.315.705.14.2.32.36.54.48.23.11.495.165.795.165.33 0 .61-.04.84-.12.23-.09.435-.195.615-.315l.45 1.485z" fill="#2C2C2C"/><g clip-path="url(#clip0_6_126)"><path d="M12.5 8.036a4.464 4.464 0 104.464 4.464A4.477 4.477 0 0012.5 8.036zm10.655 3.274a10.755 10.755 0 00-9.465-9.464V0h-2.38v1.845a10.755 10.755 0 00-9.465 9.464H0v2.381h1.845a10.755 10.755 0 009.465 9.465V25h2.38v-1.845a10.755 10.755 0 009.465-9.465H25v-2.38h-1.845zM12.5 20.833a8.333 8.333 0 118.333-8.333 8.358 8.358 0 01-8.333 8.333z" fill="#2C2C2C"/></g><defs><clipPath id="clip0_6_126"><path fill="#fff" d="M0 0h25v25H0z"/></clipPath></defs></svg>