<svg xmlns="http://www.w3.org/2000/svg" width="15.039" height="10.412" viewBox="0 0 15.039 10.412">
  <g id="_ionicons_svg_ios-mail" transform="translate(-48 -112)">
    <path id="Path_3" data-name="Path 3" d="M62.916,146.707l-3.89,3.962a.07.07,0,0,0,0,.1l2.722,2.9a.469.469,0,0,1,0,.665.471.471,0,0,1-.665,0l-2.711-2.889a.074.074,0,0,0-.1,0l-.662.672a2.911,2.911,0,0,1-2.075.875,2.969,2.969,0,0,1-2.118-.9l-.636-.647a.074.074,0,0,0-.1,0l-2.711,2.889a.471.471,0,0,1-.665,0,.469.469,0,0,1,0-.665l2.722-2.9a.077.077,0,0,0,0-.1l-3.894-3.962a.071.071,0,0,0-.123.051v7.928a1.16,1.16,0,0,0,1.157,1.157H61.882a1.16,1.16,0,0,0,1.157-1.157v-7.928A.072.072,0,0,0,62.916,146.707Z" transform="translate(0 -33.431)"/>
    <path id="Path_4" data-name="Path 4" d="M67.182,118.619a1.965,1.965,0,0,0,1.414-.593l5.672-5.773a1.136,1.136,0,0,0-.716-.253H60.816a1.129,1.129,0,0,0-.716.253l5.672,5.773A1.966,1.966,0,0,0,67.182,118.619Z" transform="translate(-11.663 0)"/>
  </g>
</svg>
