<svg xmlns="http://www.w3.org/2000/svg" width="15" height="15" viewBox="0 0 15 15">
  <path id="_ionicons_svg_ios-person" d="M79,78.621c-.281-1.242-1.887-1.848-2.442-2.043a18.2,18.2,0,0,0-2.035-.391,2.068,2.068,0,0,1-.941-.434,8.227,8.227,0,0,1-.062-1.926,5.793,5.793,0,0,0,.445-.848,10.933,10.933,0,0,0,.328-1.48s.32,0,.434-.562a5.535,5.535,0,0,0,.289-1.309c-.023-.449-.27-.437-.27-.437a6.848,6.848,0,0,0,.266-2,3.518,3.518,0,0,0-7,0,7.143,7.143,0,0,0,.262,2s-.246-.012-.27.438a5.534,5.534,0,0,0,.289,1.309c.109.563.434.563.434.563a10.934,10.934,0,0,0,.328,1.48,5.8,5.8,0,0,0,.445.848,8.227,8.227,0,0,1-.063,1.926,2.068,2.068,0,0,1-.941.434,18.2,18.2,0,0,0-2.035.391c-.555.2-2.16.8-2.442,2.043a.312.312,0,0,0,.309.379H78.7A.312.312,0,0,0,79,78.621Z" transform="translate(-64.009 -64)"/>
</svg>
