<svg xmlns="http://www.w3.org/2000/svg" width="15.26" height="15.259" viewBox="0 0 15.26 15.259">
  <path id="_ionicons_svg_ios-call" d="M78.676,75.983A12.818,12.818,0,0,0,76,74.192c-.8-.385-1.1-.377-1.664.032-.473.342-.779.659-1.323.54a11.181,11.181,0,0,1-4.624-4.624c-.115-.548.2-.85.54-1.323.409-.568.421-.862.032-1.664a12.564,12.564,0,0,0-1.792-2.677c-.584-.584-.715-.457-1.037-.342a5.9,5.9,0,0,0-.949.5,2.864,2.864,0,0,0-1.14,1.2c-.226.489-.489,1.4.846,3.774a21.058,21.058,0,0,0,3.7,4.938l0,0,0,0a21.14,21.14,0,0,0,4.938,3.7c2.376,1.335,3.285,1.073,3.774.846a2.815,2.815,0,0,0,1.2-1.14,5.9,5.9,0,0,0,.5-.949C79.133,76.7,79.264,76.567,78.676,75.983Z" transform="translate(-63.857 -64.035)"/>
</svg>
